<mxfile host="Electron" modified="2024-03-30T12:03:50.573Z" agent="Mozilla/5.0 (Windows NT 10.0; Win64; x64) AppleWebKit/537.36 (KHTML, like Gecko) draw.io/22.0.0 Chrome/114.0.5735.289 Electron/25.8.3 Safari/537.36" etag="8hgp8g1fDeUzizR2CTYP" version="22.0.0" type="device">
  <diagram name="Page-1" id="0EdxBGSiusl_wPXFMI3f">
    <mxGraphModel dx="1714" dy="508" grid="1" gridSize="10" guides="1" tooltips="1" connect="1" arrows="1" fold="1" page="1" pageScale="1" pageWidth="850" pageHeight="1100" math="0" shadow="0">
      <root>
        <mxCell id="0" />
        <mxCell id="1" parent="0" />
        <mxCell id="q_SVAzrkm7CIC3D86Wrv-1" value="" style="group" vertex="1" connectable="0" parent="1">
          <mxGeometry x="-720" y="140" width="370" height="300" as="geometry" />
        </mxCell>
        <mxCell id="q_SVAzrkm7CIC3D86Wrv-2" value="" style="rounded=0;whiteSpace=wrap;html=1;strokeWidth=3;" vertex="1" parent="q_SVAzrkm7CIC3D86Wrv-1">
          <mxGeometry width="370" height="300" as="geometry" />
        </mxCell>
        <mxCell id="q_SVAzrkm7CIC3D86Wrv-3" value="&lt;font style=&quot;font-size: 16px;&quot;&gt;Assign Student&lt;/font&gt;" style="rounded=0;whiteSpace=wrap;html=1;" vertex="1" parent="q_SVAzrkm7CIC3D86Wrv-1">
          <mxGeometry x="15.046210720887245" y="30" width="150.46210720887245" height="37.5" as="geometry" />
        </mxCell>
        <mxCell id="q_SVAzrkm7CIC3D86Wrv-4" value="" style="ellipse;whiteSpace=wrap;html=1;aspect=fixed;" vertex="1" parent="q_SVAzrkm7CIC3D86Wrv-1">
          <mxGeometry x="335.80406654343807" y="7.5" width="18.19547134935305" height="18.19547134935305" as="geometry" />
        </mxCell>
        <mxCell id="q_SVAzrkm7CIC3D86Wrv-5" value="" style="endArrow=none;html=1;rounded=0;entryX=1;entryY=0;entryDx=0;entryDy=0;exitX=0;exitY=1;exitDx=0;exitDy=0;" edge="1" parent="q_SVAzrkm7CIC3D86Wrv-1" source="q_SVAzrkm7CIC3D86Wrv-4" target="q_SVAzrkm7CIC3D86Wrv-4">
          <mxGeometry width="50" height="50" relative="1" as="geometry">
            <mxPoint x="151.82994454713491" y="180" as="sourcePoint" />
            <mxPoint x="186.02587800369685" y="142.5" as="targetPoint" />
          </mxGeometry>
        </mxCell>
        <mxCell id="q_SVAzrkm7CIC3D86Wrv-6" value="" style="endArrow=none;html=1;rounded=0;entryX=0;entryY=0;entryDx=0;entryDy=0;exitX=1;exitY=1;exitDx=0;exitDy=0;" edge="1" parent="q_SVAzrkm7CIC3D86Wrv-1" source="q_SVAzrkm7CIC3D86Wrv-4" target="q_SVAzrkm7CIC3D86Wrv-4">
          <mxGeometry width="50" height="50" relative="1" as="geometry">
            <mxPoint x="151.82994454713491" y="180" as="sourcePoint" />
            <mxPoint x="186.02587800369685" y="142.5" as="targetPoint" />
          </mxGeometry>
        </mxCell>
        <mxCell id="q_SVAzrkm7CIC3D86Wrv-7" value="Student email" style="rounded=0;whiteSpace=wrap;html=1;align=left;" vertex="1" parent="q_SVAzrkm7CIC3D86Wrv-1">
          <mxGeometry x="15.046210720887245" y="82.5" width="212.01478743068392" height="15" as="geometry" />
        </mxCell>
        <mxCell id="q_SVAzrkm7CIC3D86Wrv-8" value="Student name" style="rounded=0;whiteSpace=wrap;html=1;align=left;" vertex="1" parent="q_SVAzrkm7CIC3D86Wrv-1">
          <mxGeometry x="15.046210720887245" y="105" width="212.01478743068392" height="15" as="geometry" />
        </mxCell>
        <mxCell id="q_SVAzrkm7CIC3D86Wrv-9" value="Current semester" style="rounded=0;whiteSpace=wrap;html=1;align=left;" vertex="1" parent="q_SVAzrkm7CIC3D86Wrv-1">
          <mxGeometry x="15.046210720887245" y="128.25" width="212.01478743068392" height="15" as="geometry" />
        </mxCell>
        <mxCell id="q_SVAzrkm7CIC3D86Wrv-10" value="Semester courses" style="rounded=0;whiteSpace=wrap;html=1;align=left;" vertex="1" parent="q_SVAzrkm7CIC3D86Wrv-1">
          <mxGeometry x="15.046210720887245" y="150" width="212.01478743068392" height="15" as="geometry" />
        </mxCell>
        <mxCell id="q_SVAzrkm7CIC3D86Wrv-11" value="" style="shape=image;imageAspect=0;aspect=fixed;verticalLabelPosition=bottom;verticalAlign=top;image=data:image/png,iVBORw0KGgoAAAANSUhEUgAABkAAAAZACAMAAAAW0n6VAAAAAXNSR0IArs4c6QAAAARnQU1BAACxjwv8YQUAAAMAUExURQAAAAAAAAAAAAAAAAAAAAAAAAAAAAAAAAAAAAAAAAAAAAAAAAAAAAAAAAAAAAAAAAAAAAAAAAAAAAAAAAAAAAAAAAAAAAAAAAAAAAAAAAAAAAAAAAAAAAAAAAAAAAAAAAAAAAAAAAAAAAAAAAAAAAAAAAAAAAAAAAAAAAAAMwAAZgAAmQAAzAAA/wAzAAAzMwAzZgAzmQAzzAAz/wBmAABmMwBmZgBmmQBmzABm/wCZAACZMwCZZgCZmQCZzACZ/wDMAADMMwDMZgDMmQDMzADM/wD/AAD/MwD/ZgD/mQD/zAD//zMAADMAMzMAZjMAmTMAzDMA/zMzADMzMzMzZjMzmTMzzDMz/zNmADNmMzNmZjNmmTNmzDNm/zOZADOZMzOZZjOZmTOZzDOZ/zPMADPMMzPMZjPMmTPMzDPM/zP/ADP/MzP/ZjP/mTP/zDP//2YAAGYAM2YAZmYAmWYAzGYA/2YzAGYzM2YzZmYzmWYzzGYz/2ZmAGZmM2ZmZmZmmWZmzGZm/2aZAGaZM2aZZmaZmWaZzGaZ/2bMAGbMM2bMZmbMmWbMzGbM/2b/AGb/M2b/Zmb/mWb/zGb//5kAAJkAM5kAZpkAmZkAzJkA/5kzAJkzM5kzZpkzmZkzzJkz/5lmAJlmM5lmZplmmZlmzJlm/5mZAJmZM5mZZpmZmZmZzJmZ/5nMAJnMM5nMZpnMmZnMzJnM/5n/AJn/M5n/Zpn/mZn/zJn//8wAAMwAM8wAZswAmcwAzMwA/8wzAMwzM8wzZswzmcwzzMwz/8xmAMxmM8xmZsxmmcxmzMxm/8yZAMyZM8yZZsyZmcyZzMyZ/8zMAMzMM8zMZszMmczMzMzM/8z/AMz/M8z/Zsz/mcz/zMz///8AAP8AM/8AZv8Amf8AzP8A//8zAP8zM/8zZv8zmf8zzP8z//9mAP9mM/9mZv9mmf9mzP9m//+ZAP+ZM/+ZZv+Zmf+ZzP+Z///MAP/MM//MZv/Mmf/MzP/M////AP//M///Zv//mf//zP///69WTRwAAAAodFJOUzbd9P6TxGuq61HMe7NDm1qD5Lli1KJKc4w5AAAAAAAAAAAAAAAAAAApCyKWAAAACXBIWXMAAA7DAAAOwwHHb6hkAAAnXklEQVR4Xu3da5PTxhaG0QNDQggEAgkk4f//0MOAgIG52a916d57rS9UgS2rqmU/2K2W/vcRAAICAkBEQACICAgAEQEBICIgAEQEBICIgAAQERAAIgICQERAAIgICAARAQEgIiAARAQEgIiAABAREAAiAgJAREAAiAgIABEBASAiIABEBASAiIAAEBEQACICAkBEQACICAgAEQEBICIgAEQEBICIgAAQERAAIgICQERAAIgICAARAQEgIiAARAQEgIiAABAREAAiAgJAREAAiAgIABEBASAiIABEBASAiIAAEBEQACICAkBEQACICAgAEQEBICIgAEQEBICIgAAQERAAIgICQERAAIgICAARAQEgIiAARAQEgIiAABAREAAiAgJAREAAiAgIABEBASAiIABEBASAiIAAEBEQACICAkBEQACICAgAEQEBICIgAEQEBICIgAAQERAAIgICQERAAIgICAARAQEgIiAARAQEgIiAABAREAAiAgJAREAAiAgIABEBASAiIABEBASAiIAAEBEQACICAkBEQACICAgAEQEBICIgAEQEBICIgAAQERAAIgICQERAAIgICAARAQEgIiAARAQEgIiAABAREAAiAgJAREAAiAgIABEBASAiIABEBASAiIAAEBEQACICAkBEQACICAgAEQEBICIgAEQEBICIgAAQERAAIgICQERAAIgICAARAQEgIiAARAQEgIiAABAREAAiAgJAREAAiAgIABEBASAiIABEBASAiIAAEBEQACICAkBEQACICAgAEQEBICIgAEQEBICIgAAQERAAIgICQERAAIgICAARAQEgIiAARAQEgIiAABAREAAiAgJAREAAiAgIABEBASAiIABEBASAiIAAEBEQACICAkBEQACICAgAEQEBICIgAEQEBICIgAAQERAAIgICQERAAIgICAARAQEgIiAARAQEgIiAABAREAAiAgJAREAAiAgIABEBASAiIABEBASAiIAAEBEQACICAkBEQACICAgAEQEBICIgAEQEBICIgAAQERAAIgICQERAAIgICAARAQEgIiAARAQEgIiAABAREAAiAgJAREAAiAgIABEBASAiIABEBASAiIAAEBEQACICAkBEQACICAgAEQEBICIgAEQEBICIgAAQERAAIgICQERAAIgICAARAQEgIiAARAQEgIiAABAREAAiAgJAREAAiAgIABEBASAiIABEBASAiIAAEBEQACICAkBEQACICAgAEQEBICIgAEQEBICIgAAQERAAIgICQERAAIgICAARAQEgIiAARAQEgIiAABAREAAiAgJAREAAiAgIABEBASAiIABEBASAiIAAEBEQACICAkBEQACICAgAEQEBICIgAEQEBICIgAAQERAAIgICQERAAIgICAARAQEgIiAARAQEgIiAABAREAAiAgJAREAAiAgIABEBASAiIABEBASAiIAAEBEQACICAkBEQACICAgAEQEBICIgAEQEBICIgAAQERAAIgICQERAAIgICAARAQEgIiAARAQEgIiAABAREAAiAgJAREAAiAgIABEBASAiIABEBASAiIAAEBEQACICAkBEQACICAgAEQEBICIgAEQEBICIgAAQERAAIgICQERAAIgICAARAQEgIiAARAQEgIiAABAREAAiAgJAREAAiAgIABEBASAiIABEBASAiIAAEBEQACICAkBEQACICAgAEQEBICIgAEQEBICIgAAQERAAIgICQERAAIgICAARAQEgIiAARAQEgIiAABAREAAiAgJAREAAiAgIABEBASAiIABEBASAiIAAEBEQACICAkBEQACICAgAEQEBICIgAEQEBICIgAAQERAAIgICQERAAIgICAARAQEgIiAARAQEgIiAABAREAAiAgJAREAAiAgIABEBASAiIABEBASAiIAAEBEQACICAkBEQACICAgAEQEBICIgAEQEBICIgAAQERAAIgICQERAAIgICAARAQEgIiAARAQEgIiAABAREAAiAgJAREAAiAgIABEBASAiIABEBASAiIAAEBEQACICAkBEQACICAgAEQEBICIgAEQEBICIgAAQERAAIgICQERAAIgICAARAQEgIiAARAQEgIiAABAREAAiAgJAREAAiAgIABEBASAiIABEBASAiIAAEBEQACICAkBEQACICAgAEQEBICIgAEQEBICIgAAQERAAIgICQERAAIgICAARAQEgIiAARAQEgIiAABAREAAiAgJAREAAiAgIABEBASAiIABEBASAiIAAEBEQACICAkBEQACICAgAEQEBICIgAEQEBICIgAAQERAAIgICQERAAIgICAARAQEgIiAARAQEgIiAABAREAAi3QPy35t/nr1+/vzd8/ev//3z1z+WvwW6+/Dy+S9Pfrv64unfv7x/+WH5F75pHJAPf756uxwd3z39/f1fy78DTf366unyifCj357/ujyCz7oG5OUvyxFxl7fv3ywPA5r54/Xt/1je9OTf/5ZH0jMgL/9eDoX7PX3v6yr08/LJ8hHwkLcvl0e31y8gH94tB8FjfvtzeQbQwn+nfjhcXT33NeRat4D89fiXj++ePlueBZR3Rj6uvZKQbgF5cU4+Pnu9PBMo7X/n5ePau+WpjbUKyO/LuJ/jqbMuoL5nyxv+PO1/5m4UkH+XMT/X7/3miaCXFw+feHW/t81Ptmnz4fhHeoR8YioEKnu+vNMTvT8dugTkz2W0M78vWwHqOeXM3fs9WbbSUpOAPLRs8BS/WRUCNb25e9H56Z42XnfcIyAX/Hz1lUUhUFE2e/6jvp8OHQLy4tL/YXzmhF6o55Lpj++eL1trp0FA/lrG+FJtjxEo69Xy7r7Uq2V73dQPyFr96HuMQFWXTo5+98uyxWbKB+TXZXzXYOEpVLJeP7oWpHpAXiyjuw4FgTrW7EfT37iLB+R/q8yff6cgUMW6/ei5pLB4QL7ekHI1CgI1rN2Pq6uGNzOtHZCzL777OAWBCtbvx9XTZdONlA7I+2VcV6UgML8N+tHxqiaVA7LeCbw/UBCY3Sb9aDiRXjkgK0+gf6MgMLeN+nF19WJ5gS4KB2StNaa3KQjMbLN+XP22vEIXdQPyZhnRLSgIzGu7flxdvV9eo4m6AVn9DN6bFARmtWU/rq6WF2mibEAuu4PUoxQE5rRtP5pd0qRsQLaaQf9KQWBGG/ej2Tx61YC8XgZzOwoC89m8H71ugF01IFt/AflEQWA22/fj6qrT/a+LBmTjGZAvFATmskc/Ws2CFA3IpqdgfaMgMJNd+tHqRKyaAdnoIia3KAjMY6d+dLque82A7HWgKAhMY7ePhUbL0WsGZBnHHSgIzGG3fnSaRi8ZkH+WYdyDgsAMduxHo+uZlAzInoeKgsAEdv1Q6PMbVsmALKO4EwWB0e3aj0bnYVUMyItlEPeiIDC2nftx9XJ53fIqBuTZMoi7URAY2d796PORUDEgvy+DuB8FgXHt3o8+kyAVA7KM4Z4UBEa1fz/6TIIIyDoUBMZ0RD+u3iwvXl3BgOx1HZMfKQiM6JB+XP25vHp1BQOyy5V4b1MQGM8x/bh6vbx8dQUD8n4Zwr0pCIzmoH60uaR7wYAcdcgoCAzmsA+DJ8sOVFcwIE+WIdyfgsBIDuvH1dNlD6orGJB9biZ1JwWBcRzXjzbn8RYMyA63Q7+XgsAojuyHgExrGcBjKAiM4dB+CMi0lgE8iILACI7th4BMaxnAoygIHO/gfgjItJYBPIyCwNGO7oeATOvISfTPFASOdXg/BGRaB57Gu1AQONLx/ehyPfeCAdn/diC3KAgc5/h+WIk+r1fLEB5JQeAoA/TDtbDm9XoZwkMpCBxjhH5cvV92prqCAflnGcJjKQgcYYh+XL1c9qa6ggH5sAzhwRQE9jdGP65eLLtTXcGAHL4QZKEgsLdB+tHlLN6SATn+PN4vFAT2NUo/ulzNvWRARjgN6zMFgT2N0o+rV8sOlVcxIGPMol9TENjPMP24+mfZo/IqBmSUSZBPFAT2Mk4/rv5bdqm8kgEZZRLkEwWBfQzUjy4XMikakCGWEi4UBPYwUD+uXi/7VF/JgPyxDOMQFAS2N1I/rj4sO1VfyYCM9BuWgsD2hupHm5N4qwbk2TKQY1AQ2NZQ/bh6tuxVAzUDMtB5WNcUBLY0Vj/aLEP/pGhABjugFAS2M9jbvcul3K8VDciLZShHoSCwlcH6cfVm2a8Oigbk49/LWI5CQWAbo/Xj72W/WqgakDfLYA5DQWALo/Wj1ReQsgEZ7iuIgsAGhutHl7uhf1E2IIPcVuoGBYG1DdePRosIr5UNyDgXdf9GQWBd4/Xj+bJnTdQNyGBrQa4pCKxpvH40WoT+WeGAvFyGdCAKAusZrx9XL5dd66JwQEY8vBQE1jLgG7zTGsLPKgfk49NlVAeiILCOAfvR7Qes4gH5axnWkSgIrGHAfvRaAvJZ6YAMdlXeLxQELjdiP/5d9q2R2gH5+G4Z2ZEoCFxqxH50fGcXD8jHJ8vYjkRB4DIj9qPVNbC+qh6Qj2+X0R2JgsAlRuxHr0uYfFU+IAoCxejHMOoHZKwbpC8UBFIj9uPtsm/dNAiIgkAh+jGQDgFREChDP0bSIiAKAkXox1B6BERBoAT9GEuTgCgIFKAfg+kSEAWB6enHaNoEREFgcvoxnD4BURCYmn6Mp1FAFAQmph8D6hQQBYFp6ceIWgVEQWBS+jGkXgFREJiSfoypWUAUBCakH4PqFhAFgenox6jaBURBYDL6Max+AVEQmIp+jKthQBQEJqIfA+sYEAWBaejHyFoGREFgEvoxtJ4BURCYgn6MrWlAFAQmoB+D6xoQBYHh6cfo2gZEQWBw+jG8vgFREBiafoyvcUAUBAamHxPoHBAFgWHpxwxaB0RBYFD6MYXeAVEQGJJ+zKF5QBQEBqQfk+geEAWB4ejHLNoHREFgMPoxDQFREBiKfsxDQBQERqIfExGQTxQERqEfMxGQawoCY9CPqQjIZwoCI9CPuQjIFwoCx9OPyQjIQkHgaPoxGwH5SkHgWPoxHQH5RkHgSPoxHwH5TkHgOPoxIQG5QUHgKPoxIwG5SUHgGPoxJQH5gYLAEfRjTgLyIwWB/enHpATkJwoCe9OPWQnIzxQE9qUf0xKQWxQE9qQf8xKQ2xQE9qMfExOQOygI7EU/ZiYgd1EQ2Id+TE1A7qQgsAf9mJuA3E1BYHv6MTkBuYeCwNb0Y3YCch8FgW3px/QE5F4KAlvSj/kJyP0UBLajHwUIyAMUBLaiHxUIyEMUBLahHyUIyIMUBLagHzUIyMMUBNanH0UIyCMUBNamH1UIyGMUBNalH2UIyKMUBNakH3UIyOMUBNajH4UIyAkUBNaiH5UIyCkUBNahH6UIyEkUBNagH7UIyGkUBC6nH8UIyIkUBC6lH9UIyKkUBC6jH+UIyMkUBC6hH/UIyOkUBHL6UZCAnEFBIKUfFQnIORQEMvpRkoCcRUEgoR81Cch5FATOpx9FCciZFATOpR9VCci5FATOox9lCcjZFATOoR91Ccj5FAROpx+FCUhAQeBU+lGZgCQUBE6jH6UJSERB4BT6UZuAZBQEHqcfxQlISEHgMfpRnYCkFAQeph/lCUhMQeAh+lGfgOQUBO6nHw0IyAUUBO6jHx0IyCUUBO6mHy0IyEUUBO6iHz0IyGUUBG7TjyYE5EIKAj/Tjy4E5FIKAj/SjzYE5GIKAjfpRx8CcjkFge/0oxEBWYGCwFf60YmArEFB4Av9aEVAVqEgcE0/ehGQdSgI6Ec7ArISBQH96EZA1qIgdKcf7QjIahSE3vSjHwFZj4LQmX40JCArUhD60o+OBGRNCkJX+tGSgKxKQehJP3oSkHUpCB3pR1MCsjIFoR/96EpA1qYgdKMfbQnI6hSEXvSjLwFZn4LQiX40JiAbUBD60I/OBGQLCkIX+tGagGxCQehBP3oTkG0oCB3oR3MCshEFoT796E5AtqIgVKcf7QnIZhSE2vQDAdmOglCZfiAgW1IQ6tIPBGRbCkJV+sEnArIpBaEm/eCagGxLQahIP/hMQDamINSjH3whIFtTEKrRDxYCsjkFoRb94CsB2Z6CUIl+8I2A7EBBqEM/+E5A9qAgVKEf3CAgu1AQatAPbhKQfSgIFegHPxCQnSgI89MPfiQge1EQZqcf/ERAdqMgzE0/+JmA7EdBmJl+cIuA7EhBmJd+cJuA7ElBmJV+cAcB2ZWCMCf94C4Csi8FYUb6wZ0EZGcKwnz0g7sJyN4UhNnoB/cQkN0pCHPRD+4jIPtTEGaiH9xLQA6gIMxDP7ifgBxBQZiFfvAAATmEgjAH/eAhAnIMBWEG+sGDBOQgCsL49IOHCchRFITR6QePEJDDKAhj0w8eIyDHURBGph88SkAOpCCMSz94nIAcSUEYlX5wAgE5lIIwJv3gFAJyLAVhRPrBSQTkYArCePSD0wjI0RSE0egHJxKQwykIY9EPTiUgx1MQRqIfnExABqAgjEM/OJ2AjEBBGIV+cAYBGYKCMAb94BwCMgYFYQT6wVkEZBAKwvH0g/MIyCgUhKPpB2cSkGEoCMfSD84lIONQEI6kH5xNQAaiIBxHPzifgIxEQTiKfhAQkKEoCMfQDxICMhYF4Qj6QURABqMg7E8/yAjIaBSEvekHIQEZjoKwL/0gJSDjURD2pB/EBGRACsJ+9IOcgIxIQdiLfnABARmSgrAP/eASAjImBWEP+sFFBGRQCsL29IPLCMioFISt6QcXEpBhKQjb0g8uJSDjUhC2pB9cTEAGpiBsRz+4nICMTEHYin6wAgEZmoKwDf1gDQIyNgVhC/rBKgRkcArC+vSDdQjI6BSEtekHKxGQ4SkI69IP1iIg41MQ1qQfrEZAJqAgrEc/WI+AzEBBWIt+sCIBmYKCsA79YE0CMgcFYQ36waoEZBIKwuX0g3UJyCwUhEvpBysTkGkoCJfRD9YmIPNQEC6hH6xOQCaiIOT0g/UJyEwUhJR+sAEBmYqCkNEPtiAgc1EQEvrBJgRkMgrC+fSDbQjIbBSEc+kHGxGQ6SgI59EPtiIg81EQzqEfbEZAJqQgnE4/2I6AzEhBOJV+sCEBmZKCcBr9YEsCMicF4RT6waYEZFIKwuP0g20JyKwUhMfoBxsTkGkpCA/TD7YmIPNSEB6iH2xOQCamINxPP9iegMxMQbiPfrADAZmagnA3/WAPAjI3BeEu+sEuBGRyCsJt+sE+BGR2CsLP9IOdCMj0FIQf6Qd7EZD5KQg36Qe7EZACFITv9IP9CEgFCsJX+sGOBKQEBeEL/WBPAlKDgnBNP9iVgBShIOgHexOQKhQE/WBnAlKGgnSnH+xNQOpQkN70g90JSCEK0pl+sD8BqURB+tIPDiAgpShIV/rBEQSkFgXpST84hIAUoyAd6QfHEJBqFKQf/eAgAlKOgnSjHxxFQOpRkF70g8MISEEK0ol+cBwBqUhB+tAPDiQgJSlIF/rBkQSkJgXpQT84lIAUpSAd6AfHEpCqFKQ+/eBgAlKWglSnHxxNQOpSkNr0g8MJSGEKUpl+cDwBqUxB6tIPBiAgpSlIVfrBCASkNgWpST8YgoAUpyAV6QdjEJDqFKQe/WAQAlKeglSjH4xCQOpTkFr0g2EISAMKUol+MA4B6UBB6tAPBiIgLShIFfrBSASkBwWpQT8YioA0oSAV6AdjEZAuFGR++sFgBKQNBZmdfjAaAelDQeamHwxHQBpRkJnpB+MRkE4UZF76wYAEpBUFmZV+MCIB6UVB5qQfDElAmlGQGekHYxKQbhRkPvrBoASkHQWZjX4wKgHpR0Hmoh8MS0AaUpCZ6AfjEpCOFGQe+sHABKQlBZmFfjAyAelJQeagHwxNQJpSkBnoB2MTkK4UZHz6weAEpC0FGZ1+MDoB6UtBxqYfDE9AGlOQkekH4xOQzhRkXPrBBASkNQUZlX4wAwHpTUHGpB9MQUCaU5AR6QdzEJDuFGQ8+sEkBKQ9BRmNfjALAUFBxqIfTENAUJCh6AfzEBAUZCT6wUQEhE8UZBT6wUwEhGsKMgb9YCoCwmcKMgL9YC4CwhcKcjz9YDICwkJBjqYfzEZA+EpBjqUfTEdA+EZBjqQfzEdA+E5BjqMfTEhAuEFBjqIfzEhAuElBjqEfTElA+IGCHEE/mJOA8CMF2Z9+MCkB4ScKsjf9YFYCws8UZF/6wbQEhFsUZE/6wbwEhNsUZD/6wcQEhDsoyF70g5kJCHdRkH3oB1MTEO6kIHvQD+YmINxNQbanH0xOQLiHgmxNP5idgHAfBdmWfjA9AeFeCrIl/WB+AsL9FGQ7+kEBAsIDFGQr+kEFAsJDFGQb+kEJAsKDFGQL+kENAsLDFGR9+kERAsIjFGRt+kEVAsJjFGRd+kEZAsKjFGRN+kEdAsLjFGQ9+kEhAsIJFGQt+kElAsIpFGQd+kEpAsJJFGQN+kEtAsJpFORy+kExAsKJFORS+kE1AsKpFOQy+kE5AsLJFOQS+kE9AsLpFCSnHxQkIJxBQVL6QUUCwjkUJKMflCQgnEVBEvpBTQLCeRTkfPpBUQLCmRTkXPpBVQLCuRTkPPpBWQLC2RTkHPpBXQLC+RTkdPpBYQJCQEFOpR9UJiAkFOQ0+kFpAkJEQU6hH9QmIGQU5HH6QXECQkhBHqMfVCcgpBTkYfpBeQJCTEEeoh/UJyDkFOR++kEDAsIFFOQ++kEHAsIlFORu+kELAsJFFOQu+kEPAsJlFOQ2/aAJAeFCCvIz/aALAeFSCvIj/aANAeFiCnKTftCHgHA5BflOP2hEQFiBgnylH3QiIKxBQb7QD1oREFahINf0g14EhHUoiH7QjoCwEgXRD7oRENbSvSD6QTsCwmp6F0Q/6EdAWE/ngugHDQkIK+pbEP2gIwFhTV0Loh+0JCCsqmdB9IOeBIR1dSyIftCUgLCyfgXRD7oSENbWrSD6QVsCwup6FUQ/6EtAWF+ngugHjQkIG+hTEP2gMwFhC10Koh+0JiBsokdB9IPeBIRtdCiIftCcgLCR+gXRD7oTELZSvSD6QXsCwmZqF0Q/QEDYTuWC6AcICFuqWxD9AAFhW1ULoh/wiYCwqZoF0Q+4JiBsq2JB9AM+ExA2Vq8g+gFfCAhbq1YQ/YCFgLC5WgXRD/hKQNhepYLoB3wjIOygTkH0A74TEPZQpSD6ATcICLuoURD9gJsEhH1UKIh+wA8EhJ3MXxD9gB8JCHuZvSD6AT8REHYzd0H0A34mIOxn5oLoB9wiIOxo3oLoB9wmIOxp1oLoB9xBQNjVnAXRD7iLgLCvGQuiH3AnAWFn8xVEP+BuAsLeZiuIfsA9BITdzVUQ/YD7CAj7m6kg+gH3EhAOME9B9APuJyAcYZaC6Ac8QEA4xBwF0Q94iIBwjBkKoh/wIAHhIOMXRD/gYQLCUUYviH7AIwSEw4xdEP2AxwgIxxm5IPoBjxIQDjRuQfQDHicgHGnUgugHnEBAONSYBdEPOIWAcKwRC/J0+XMk+sGABISDjViQ8egHIxIQjqYgj9MPhiQgHE5BHqMfjElAOJ6CPEw/GJSAMAAFeYh+MCoBYQQKcj/9YFgCwhAU5D76wbgEhDEoyN30g4EJCINQkLvoByMTEEahILfpB0MTEIahID/TD8YmIIxDQX6kHwxOQBiIgtykH4xOQBiJgnynHwxPQBiKgnylH4xPQBiLgnyhH0xAQBiMglzTD2YgIIxGQfSDSQgIw1EQ/WAOAsJ4uhdEP5iEgDCg3gXRD2YhIIyoc0H0g2kICEPqWxD9YB4Cwpi6FkQ/mIiAMKieBdEPZiIgjKpjQfSDqQgIw+pXEP1gLgLCuLoVRD+YjIAwsF4F0Q9mIyCMrFNB9IPpCAhD61MQ/WA+AsLYuhREP5iQgDC4HgXRD2YkIIyuQ0H0gykJCMOrXxD9YE4CwviqF0Q/mJSAMIHaBdEPZiUgzKByQfSDaQkIU6hbEP1gXgLCHKoWRD+YmIAwiZoF0Q9mJiDMomJB9IOpCQjTqFcQ/WBuAsI8qhVEP5icgDCRWgXRD2YnIMykUkH0g+kJCFOpUxD9YH4CwlyqFEQ/KEBAmEyNgugHFQgIs6lQEP2gBAFhOvMXRD+oQUCYz+wF0Q+KEBAmNHdB9IMqBIQZzVwQ/aAMAWFK8xZEP6hDQJjTrAXRDwoRECY1Z0H0g0oEhFnNWBD9oBQBYVrzFUQ/qEVAmNdsBdEPihEQJjZXQfSDagSEmc1UEP2gHAFhavMURD+oR0CY2ywF0Q8KEhAmN0dB9IOKBITZzVAQ/aAkAWF64xdEP6hJQJjf6AXRD4oSEAoYuyD6QVUCQgUjF0Q/KEtAKGHcgugHdQkINYxaEP2gMAGhiDELoh9UJiBUMWJB9IPSBIQyxiuIflCbgFDHaAXRD4oTEAoZqyD6QXUCQiUjFUQ/KE9AKGWcgugH9QkItYxSEP2gAQGhmDEKoh90ICBUM0JB9IMWBIRyji+IftCDgFDP0QXRD5oQEAo6tiD6QRcCQkVHFkQ/aENAKOm4gugHfQgINR1VEP2gEQGhqGMKoh90IiBUdURB9INWBISy9i+IftCLgFDX3gXRD5oREArbtyD6QTcCQmV7FkQ/aEdAKG2/gugH/QgIte1VEP2gIQGhuH0Koh90JCBUt0dB9IOWBITyti+IftCTgFDf1gXRD5oSEBrYtiD6QVcCQgdbFkQ/aEtAaGG7gugHfQkIPWxVEP2gMQGhiW0Koh90JiB0sUVB9IPWBIQ21i+IftCbgNDH2gXRD5oTEBpZtyD6QXcCQidrFkQ/aE9AaGW9gugHCAi9PFk+/y/197I9aExAaObvpQCX+X3ZGnQmIHTzbmnAJd4t24LWBIR23i8VyD1btgS9CQj9/PV0CUHm6YtlO9CcgNDRJRMhpj9gISC09Gypwfn+XLYACAhN/bIE4Txmz+E7AaGrN+cvKnxi9gNuEBD6enleQt7+szwP+ExA6OzX0xem//3X8hxgISD09uLVEoiHvfqwPB74RkBo76/H5tPf+fIBdxEQ+PjxzbP7Vob8/szEOdxDQOCLD/+8/uXtko1rT949+8cPV/AAAYGf/PeHtwWcwjsFgIiAABAREAAiAgJAREAAiAgIABEBASAiIABEBASAiIAAEBEQACICAkBEQACICAgAEQEBICIgAEQEBICIgAAQERAAIgICQERAAIgICAARAQEgIiAARAQEgIiAABAREAAiAgJAREAAiAgIABEBASAiIABEBASAiIAAEBEQACICAkBEQACICAgAEQEBICIgAEQEBICIgAAQERAAIgICQERAAIgICAARAQEgIiAARAQEgIiAABAREAAiAgJAREAAiAgIABEBASAiIABEBASAiIAAEBEQACICAkBEQACICAgAEQEBICIgAEQEBICIgAAQERAAIgICQERAAIgICAARAQEgIiAARAQEgIiAABAREAAiAgJAREAAiAgIABEBASAiIABEBASAiIAAEBEQACICAkBEQACICAgAEQEBICIgAEQEBICIgAAQERAAIgICQERAAIgICAARAQEgIiAARAQEgIiAABAREAAiAgJAREAAiAgIABEBASAiIABEBASAiIAAEBEQACICAkBEQACICAgAEQEBICIgAEQEBICIgAAQERAAIgICQERAAIgICAARAQEgIiAARAQEgIiAABAREAAiAgJAREAAiAgIABEBASAiIABEBASAiIAAEBEQACICAkBEQACICAgAEQEBICIgAEQEBICIgAAQERAAIgICQERAAIgICAARAQEgIiAARAQEgIiAABAREAAiAgJAREAAiAgIABEBASAiIABEBASAiIAAEBEQACICAkBEQACICAgAEQEBICIgAEQEBICIgAAQERAAIgICQERAAIgICAARAQEgIiAARAQEgIiAABAREAAiAgJAREAAiAgIABEBASAiIABEBASAiIAAEBEQACICAkBEQACICAgAEQEBICIgAEQEBICIgAAQERAAIgICQERAAIgICAARAQEgIiAARAQEgIiAABAREAAiAgJAREAAiAgIABEBASAiIABEBASAiIAAEBEQACICAkBEQACICAgAEQEBICIgAEQEBICIgAAQERAAIgICQERAAIgICAARAQEgIiAARAQEgIiAABAREAAiAgJAREAAiAgIABEBASAiIABEBASAiIAAEBEQACICAkBEQACICAgAEQEBICIgAEQEBICIgAAQERAAIgICQERAAIgICAARAQEgIiAARAQEgIiAABAREAAiAgJAREAAiAgIABEBASAiIABEBASAiIAAEBEQACICAkBEQACICAgAEQEBICIgAEQEBICIgAAQERAAIgICQERAAIgICAARAQEgIiAARAQEgIiAABAREAAiAgJAREAAiAgIABEBASAiIABEBASAiIAAEBEQACICAkBEQACICAgAEQEBICIgAEQEBICIgAAQERAAIgICQERAAIgICAARAQEgIiAARAQEgIiAABAREAAiAgJAREAAiAgIABEBASAiIABEBASAiIAAEBEQACICAkBEQACICAgAEQEBICIgAEQEBICIgAAQERAAIgICQERAAIgICAARAQEgIiAARAQEgIiAABAREAAiAgJAREAAiAgIABEBASAiIABEBASAiIAAEBEQACICAkBEQACICAgAEQEBICIgAEQEBICIgAAQERAAIgICQERAAIgICAARAQEgIiAARAQEgIiAABAREAAiAgJAREAAiAgIABEBASAiIABEBASAiIAAEBEQACICAkBEQACICAgAEQEBICIgAEQEBICIgAAQERAAIgICQERAAIgICAARAQEgIiAARAQEgIiAABAREAAiAgJAREAAiAgIABEBASAiIABEBASAiIAAEBEQACICAkBEQACICAgAEQEBICIgAEQEBICIgAAQERAAIgICQERAAIgICAARAQEgIiAARAQEgIiAABAREAAiAgJAREAAiAgIABEBASAiIABEBASAiIAAEBEQACICAkBEQACICAgAEQEBICIgAEQEBICIgAAQERAAIgICQERAAIgICAARAQEgIiAARAQEgIiAABAREAAiAgJAREAAiAgIABEBASAiIABEBASAiIAAEBEQACICAkBEQACICAgAEQEBICIgAEQEBICIgAAQERAAIgICQERAAIgICAARAQEgIiAARAQEgIiAABAREAAiAgJAREAAiAgIABEBASAiIABEBASAiIAAEBEQACICAkBEQACICAgAEQEBICIgAEQEBICIgAAQERAAIgICQERAAIgICAARAQEgIiAARAQEgIiAABAREAAiAgJAREAAiAgIABEBASAiIABEBASAiIAAEBEQACICAkBEQACICAgAEQEBICIgAEQEBICIgAAQERAAIgICQERAAIgICAARAQEgIiAARAQEgIiAABAREAAiAgJAREAAiAgIABEBASAiIABEBASAiIAAEBEQACICAkBEQACICAgAgY8f/w+71y8dxM3IpAAAAABJRU5ErkJggg==;" vertex="1" parent="q_SVAzrkm7CIC3D86Wrv-1">
          <mxGeometry x="212.69870609981515" y="150" width="10.401744454713493" height="12.130314232902032" as="geometry" />
        </mxCell>
        <mxCell id="q_SVAzrkm7CIC3D86Wrv-12" value="" style="rounded=0;whiteSpace=wrap;html=1;align=center;labelPosition=center;verticalLabelPosition=middle;verticalAlign=middle;" vertex="1" parent="q_SVAzrkm7CIC3D86Wrv-1">
          <mxGeometry x="15.046210720887245" y="177" width="211.3308687615527" height="48" as="geometry" />
        </mxCell>
        <mxCell id="q_SVAzrkm7CIC3D86Wrv-13" value="" style="group" vertex="1" connectable="0" parent="q_SVAzrkm7CIC3D86Wrv-1">
          <mxGeometry x="22.569316081330868" y="181.50000000000003" width="37.61552680221811" height="11.25" as="geometry" />
        </mxCell>
        <mxCell id="q_SVAzrkm7CIC3D86Wrv-14" value="" style="ellipse;whiteSpace=wrap;html=1;aspect=fixed;fillColor=#000000;" vertex="1" parent="q_SVAzrkm7CIC3D86Wrv-13">
          <mxGeometry y="3" width="3.63909426987061" height="3.63909426987061" as="geometry" />
        </mxCell>
        <mxCell id="q_SVAzrkm7CIC3D86Wrv-15" value="Course 1" style="text;html=1;strokeColor=none;fillColor=none;align=center;verticalAlign=middle;whiteSpace=wrap;rounded=0;fontSize=9;" vertex="1" parent="q_SVAzrkm7CIC3D86Wrv-13">
          <mxGeometry x="6.839186691312384" width="30.77634011090573" height="11.25" as="geometry" />
        </mxCell>
        <mxCell id="q_SVAzrkm7CIC3D86Wrv-16" value="" style="ellipse;whiteSpace=wrap;html=1;aspect=fixed;fillColor=#000000;" vertex="1" parent="q_SVAzrkm7CIC3D86Wrv-1">
          <mxGeometry x="22.569316081330868" y="198.00000000000003" width="3.63909426987061" height="3.63909426987061" as="geometry" />
        </mxCell>
        <mxCell id="q_SVAzrkm7CIC3D86Wrv-17" value="Course 2" style="text;html=1;strokeColor=none;fillColor=none;align=center;verticalAlign=middle;whiteSpace=wrap;rounded=0;fontSize=9;" vertex="1" parent="q_SVAzrkm7CIC3D86Wrv-1">
          <mxGeometry x="29.408502772643253" y="195" width="30.77634011090573" height="11.25" as="geometry" />
        </mxCell>
        <mxCell id="q_SVAzrkm7CIC3D86Wrv-18" value="" style="ellipse;whiteSpace=wrap;html=1;aspect=fixed;fillColor=#000000;" vertex="1" parent="q_SVAzrkm7CIC3D86Wrv-1">
          <mxGeometry x="22.569316081330868" y="212.25" width="3.63909426987061" height="3.63909426987061" as="geometry" />
        </mxCell>
        <mxCell id="q_SVAzrkm7CIC3D86Wrv-19" value="Course 3" style="text;html=1;strokeColor=none;fillColor=none;align=center;verticalAlign=middle;whiteSpace=wrap;rounded=0;fontSize=9;" vertex="1" parent="q_SVAzrkm7CIC3D86Wrv-1">
          <mxGeometry x="29.408502772643253" y="209.25000000000003" width="30.77634011090573" height="11.25" as="geometry" />
        </mxCell>
        <mxCell id="q_SVAzrkm7CIC3D86Wrv-20" value="Enter account expiration date" style="rounded=0;whiteSpace=wrap;html=1;align=left;" vertex="1" parent="q_SVAzrkm7CIC3D86Wrv-1">
          <mxGeometry x="14.704251386321626" y="237" width="212.01478743068392" height="15" as="geometry" />
        </mxCell>
        <mxCell id="q_SVAzrkm7CIC3D86Wrv-21" value="" style="shape=image;imageAspect=0;aspect=fixed;verticalLabelPosition=bottom;verticalAlign=top;image=data:image/png,iVBORw0KGgoAAAANSUhEUgAABkAAAAZACAMAAAAW0n6VAAAAAXNSR0IArs4c6QAAAARnQU1BAACxjwv8YQUAAAMAUExURQAAAAAAAAAAAAAAAAAAAAAAAAAAAAAAAAAAAAAAAAAAAAAAAAAAAAAAAAAAAAAAAAAAAAAAAAAAAAAAAAAAAAAAAAAAAAAAAAAAAAAAAAAAAAAAAAAAAAAAAAAAAAAAAAAAAAAAAAAAAAAAAAAAAAAAAAAAAAAAAAAAAAAAMwAAZgAAmQAAzAAA/wAzAAAzMwAzZgAzmQAzzAAz/wBmAABmMwBmZgBmmQBmzABm/wCZAACZMwCZZgCZmQCZzACZ/wDMAADMMwDMZgDMmQDMzADM/wD/AAD/MwD/ZgD/mQD/zAD//zMAADMAMzMAZjMAmTMAzDMA/zMzADMzMzMzZjMzmTMzzDMz/zNmADNmMzNmZjNmmTNmzDNm/zOZADOZMzOZZjOZmTOZzDOZ/zPMADPMMzPMZjPMmTPMzDPM/zP/ADP/MzP/ZjP/mTP/zDP//2YAAGYAM2YAZmYAmWYAzGYA/2YzAGYzM2YzZmYzmWYzzGYz/2ZmAGZmM2ZmZmZmmWZmzGZm/2aZAGaZM2aZZmaZmWaZzGaZ/2bMAGbMM2bMZmbMmWbMzGbM/2b/AGb/M2b/Zmb/mWb/zGb//5kAAJkAM5kAZpkAmZkAzJkA/5kzAJkzM5kzZpkzmZkzzJkz/5lmAJlmM5lmZplmmZlmzJlm/5mZAJmZM5mZZpmZmZmZzJmZ/5nMAJnMM5nMZpnMmZnMzJnM/5n/AJn/M5n/Zpn/mZn/zJn//8wAAMwAM8wAZswAmcwAzMwA/8wzAMwzM8wzZswzmcwzzMwz/8xmAMxmM8xmZsxmmcxmzMxm/8yZAMyZM8yZZsyZmcyZzMyZ/8zMAMzMM8zMZszMmczMzMzM/8z/AMz/M8z/Zsz/mcz/zMz///8AAP8AM/8AZv8Amf8AzP8A//8zAP8zM/8zZv8zmf8zzP8z//9mAP9mM/9mZv9mmf9mzP9m//+ZAP+ZM/+ZZv+Zmf+ZzP+Z///MAP/MM//MZv/Mmf/MzP/M////AP//M///Zv//mf//zP///69WTRwAAAAodFJOUzbd9P6TxGuq61HMe7NDm1qD5Lli1KJKc4w5AAAAAAAAAAAAAAAAAAApCyKWAAAACXBIWXMAAA7DAAAOwwHHb6hkAAAnXklEQVR4Xu3da5PTxhaG0QNDQggEAgkk4f//0MOAgIG52a916d57rS9UgS2rqmU/2K2W/vcRAAICAkBEQACICAgAEQEBICIgAEQEBICIgAAQERAAIgICQERAAIgICAARAQEgIiAARAQEgIiAABAREAAiAgJAREAAiAgIABEBASAiIABEBASAiIAAEBEQACICAkBEQACICAgAEQEBICIgAEQEBICIgAAQERAAIgICQERAAIgICAARAQEgIiAARAQEgIiAABAREAAiAgJAREAAiAgIABEBASAiIABEBASAiIAAEBEQACICAkBEQACICAgAEQEBICIgAEQEBICIgAAQERAAIgICQERAAIgICAARAQEgIiAARAQEgIiAABAREAAiAgJAREAAiAgIABEBASAiIABEBASAiIAAEBEQACICAkBEQACICAgAEQEBICIgAEQEBICIgAAQERAAIgICQERAAIgICAARAQEgIiAARAQEgIiAABAREAAiAgJAREAAiAgIABEBASAiIABEBASAiIAAEBEQACICAkBEQACICAgAEQEBICIgAEQEBICIgAAQERAAIgICQERAAIgICAARAQEgIiAARAQEgIiAABAREAAiAgJAREAAiAgIABEBASAiIABEBASAiIAAEBEQACICAkBEQACICAgAEQEBICIgAEQEBICIgAAQERAAIgICQERAAIgICAARAQEgIiAARAQEgIiAABAREAAiAgJAREAAiAgIABEBASAiIABEBASAiIAAEBEQACICAkBEQACICAgAEQEBICIgAEQEBICIgAAQERAAIgICQERAAIgICAARAQEgIiAARAQEgIiAABAREAAiAgJAREAAiAgIABEBASAiIABEBASAiIAAEBEQACICAkBEQACICAgAEQEBICIgAEQEBICIgAAQERAAIgICQERAAIgICAARAQEgIiAARAQEgIiAABAREAAiAgJAREAAiAgIABEBASAiIABEBASAiIAAEBEQACICAkBEQACICAgAEQEBICIgAEQEBICIgAAQERAAIgICQERAAIgICAARAQEgIiAARAQEgIiAABAREAAiAgJAREAAiAgIABEBASAiIABEBASAiIAAEBEQACICAkBEQACICAgAEQEBICIgAEQEBICIgAAQERAAIgICQERAAIgICAARAQEgIiAARAQEgIiAABAREAAiAgJAREAAiAgIABEBASAiIABEBASAiIAAEBEQACICAkBEQACICAgAEQEBICIgAEQEBICIgAAQERAAIgICQERAAIgICAARAQEgIiAARAQEgIiAABAREAAiAgJAREAAiAgIABEBASAiIABEBASAiIAAEBEQACICAkBEQACICAgAEQEBICIgAEQEBICIgAAQERAAIgICQERAAIgICAARAQEgIiAARAQEgIiAABAREAAiAgJAREAAiAgIABEBASAiIABEBASAiIAAEBEQACICAkBEQACICAgAEQEBICIgAEQEBICIgAAQERAAIgICQERAAIgICAARAQEgIiAARAQEgIiAABAREAAiAgJAREAAiAgIABEBASAiIABEBASAiIAAEBEQACICAkBEQACICAgAEQEBICIgAEQEBICIgAAQERAAIgICQERAAIgICAARAQEgIiAARAQEgIiAABAREAAiAgJAREAAiAgIABEBASAiIABEBASAiIAAEBEQACICAkBEQACICAgAEQEBICIgAEQEBICIgAAQERAAIgICQERAAIgICAARAQEgIiAARAQEgIiAABAREAAiAgJAREAAiAgIABEBASAiIABEBASAiIAAEBEQACICAkBEQACICAgAEQEBICIgAEQEBICIgAAQERAAIgICQERAAIgICAARAQEgIiAARAQEgIiAABAREAAiAgJAREAAiAgIABEBASAiIABEBASAiIAAEBEQACICAkBEQACICAgAEQEBICIgAEQEBICIgAAQERAAIgICQERAAIgICAARAQEgIiAARAQEgIiAABAREAAiAgJAREAAiAgIABEBASAiIABEBASAiIAAEBEQACICAkBEQACICAgAEQEBICIgAEQEBICIgAAQERAAIgICQERAAIgICAARAQEgIiAARAQEgIiAABAREAAiAgJAREAAiAgIABEBASAiIABEBASAiIAAEBEQACICAkBEQACICAgAEQEBICIgAEQEBICIgAAQERAAIgICQERAAIgICAARAQEgIiAARAQEgIiAABAREAAiAgJAREAAiAgIABEBASAiIABEBASAiIAAEBEQACICAkBEQACICAgAEQEBICIgAEQEBICIgAAQERAAIgICQERAAIgICAARAQEgIiAARAQEgIiAABAREAAi3QPy35t/nr1+/vzd8/ev//3z1z+WvwW6+/Dy+S9Pfrv64unfv7x/+WH5F75pHJAPf756uxwd3z39/f1fy78DTf366unyifCj357/ujyCz7oG5OUvyxFxl7fv3ywPA5r54/Xt/1je9OTf/5ZH0jMgL/9eDoX7PX3v6yr08/LJ8hHwkLcvl0e31y8gH94tB8FjfvtzeQbQwn+nfjhcXT33NeRat4D89fiXj++ePlueBZR3Rj6uvZKQbgF5cU4+Pnu9PBMo7X/n5ePau+WpjbUKyO/LuJ/jqbMuoL5nyxv+PO1/5m4UkH+XMT/X7/3miaCXFw+feHW/t81Ptmnz4fhHeoR8YioEKnu+vNMTvT8dugTkz2W0M78vWwHqOeXM3fs9WbbSUpOAPLRs8BS/WRUCNb25e9H56Z42XnfcIyAX/Hz1lUUhUFE2e/6jvp8OHQLy4tL/YXzmhF6o55Lpj++eL1trp0FA/lrG+FJtjxEo69Xy7r7Uq2V73dQPyFr96HuMQFWXTo5+98uyxWbKB+TXZXzXYOEpVLJeP7oWpHpAXiyjuw4FgTrW7EfT37iLB+R/q8yff6cgUMW6/ei5pLB4QL7ekHI1CgI1rN2Pq6uGNzOtHZCzL777OAWBCtbvx9XTZdONlA7I+2VcV6UgML8N+tHxqiaVA7LeCbw/UBCY3Sb9aDiRXjkgK0+gf6MgMLeN+nF19WJ5gS4KB2StNaa3KQjMbLN+XP22vEIXdQPyZhnRLSgIzGu7flxdvV9eo4m6AVn9DN6bFARmtWU/rq6WF2mibEAuu4PUoxQE5rRtP5pd0qRsQLaaQf9KQWBGG/ej2Tx61YC8XgZzOwoC89m8H71ugF01IFt/AflEQWA22/fj6qrT/a+LBmTjGZAvFATmskc/Ws2CFA3IpqdgfaMgMJNd+tHqRKyaAdnoIia3KAjMY6d+dLque82A7HWgKAhMY7ePhUbL0WsGZBnHHSgIzGG3fnSaRi8ZkH+WYdyDgsAMduxHo+uZlAzInoeKgsAEdv1Q6PMbVsmALKO4EwWB0e3aj0bnYVUMyItlEPeiIDC2nftx9XJ53fIqBuTZMoi7URAY2d796PORUDEgvy+DuB8FgXHt3o8+kyAVA7KM4Z4UBEa1fz/6TIIIyDoUBMZ0RD+u3iwvXl3BgOx1HZMfKQiM6JB+XP25vHp1BQOyy5V4b1MQGM8x/bh6vbx8dQUD8n4Zwr0pCIzmoH60uaR7wYAcdcgoCAzmsA+DJ8sOVFcwIE+WIdyfgsBIDuvH1dNlD6orGJB9biZ1JwWBcRzXjzbn8RYMyA63Q7+XgsAojuyHgExrGcBjKAiM4dB+CMi0lgE8iILACI7th4BMaxnAoygIHO/gfgjItJYBPIyCwNGO7oeATOvISfTPFASOdXg/BGRaB57Gu1AQONLx/ehyPfeCAdn/diC3KAgc5/h+WIk+r1fLEB5JQeAoA/TDtbDm9XoZwkMpCBxjhH5cvV92prqCAflnGcJjKQgcYYh+XL1c9qa6ggH5sAzhwRQE9jdGP65eLLtTXcGAHL4QZKEgsLdB+tHlLN6SATn+PN4vFAT2NUo/ulzNvWRARjgN6zMFgT2N0o+rV8sOlVcxIGPMol9TENjPMP24+mfZo/IqBmSUSZBPFAT2Mk4/rv5bdqm8kgEZZRLkEwWBfQzUjy4XMikakCGWEi4UBPYwUD+uXi/7VF/JgPyxDOMQFAS2N1I/rj4sO1VfyYCM9BuWgsD2hupHm5N4qwbk2TKQY1AQ2NZQ/bh6tuxVAzUDMtB5WNcUBLY0Vj/aLEP/pGhABjugFAS2M9jbvcul3K8VDciLZShHoSCwlcH6cfVm2a8Oigbk49/LWI5CQWAbo/Xj72W/WqgakDfLYA5DQWALo/Wj1ReQsgEZ7iuIgsAGhutHl7uhf1E2IIPcVuoGBYG1DdePRosIr5UNyDgXdf9GQWBd4/Xj+bJnTdQNyGBrQa4pCKxpvH40WoT+WeGAvFyGdCAKAusZrx9XL5dd66JwQEY8vBQE1jLgG7zTGsLPKgfk49NlVAeiILCOAfvR7Qes4gH5axnWkSgIrGHAfvRaAvJZ6YAMdlXeLxQELjdiP/5d9q2R2gH5+G4Z2ZEoCFxqxH50fGcXD8jHJ8vYjkRB4DIj9qPVNbC+qh6Qj2+X0R2JgsAlRuxHr0uYfFU+IAoCxejHMOoHZKwbpC8UBFIj9uPtsm/dNAiIgkAh+jGQDgFREChDP0bSIiAKAkXox1B6BERBoAT9GEuTgCgIFKAfg+kSEAWB6enHaNoEREFgcvoxnD4BURCYmn6Mp1FAFAQmph8D6hQQBYFp6ceIWgVEQWBS+jGkXgFREJiSfoypWUAUBCakH4PqFhAFgenox6jaBURBYDL6Max+AVEQmIp+jKthQBQEJqIfA+sYEAWBaejHyFoGREFgEvoxtJ4BURCYgn6MrWlAFAQmoB+D6xoQBYHh6cfo2gZEQWBw+jG8vgFREBiafoyvcUAUBAamHxPoHBAFgWHpxwxaB0RBYFD6MYXeAVEQGJJ+zKF5QBQEBqQfk+geEAWB4ejHLNoHREFgMPoxDQFREBiKfsxDQBQERqIfExGQTxQERqEfMxGQawoCY9CPqQjIZwoCI9CPuQjIFwoCx9OPyQjIQkHgaPoxGwH5SkHgWPoxHQH5RkHgSPoxHwH5TkHgOPoxIQG5QUHgKPoxIwG5SUHgGPoxJQH5gYLAEfRjTgLyIwWB/enHpATkJwoCe9OPWQnIzxQE9qUf0xKQWxQE9qQf8xKQ2xQE9qMfExOQOygI7EU/ZiYgd1EQ2Id+TE1A7qQgsAf9mJuA3E1BYHv6MTkBuYeCwNb0Y3YCch8FgW3px/QE5F4KAlvSj/kJyP0UBLajHwUIyAMUBLaiHxUIyEMUBLahHyUIyIMUBLagHzUIyMMUBNanH0UIyCMUBNamH1UIyGMUBNalH2UIyKMUBNakH3UIyOMUBNajH4UIyAkUBNaiH5UIyCkUBNahH6UIyEkUBNagH7UIyGkUBC6nH8UIyIkUBC6lH9UIyKkUBC6jH+UIyMkUBC6hH/UIyOkUBHL6UZCAnEFBIKUfFQnIORQEMvpRkoCcRUEgoR81Cch5FATOpx9FCciZFATOpR9VCci5FATOox9lCcjZFATOoR91Ccj5FAROpx+FCUhAQeBU+lGZgCQUBE6jH6UJSERB4BT6UZuAZBQEHqcfxQlISEHgMfpRnYCkFAQeph/lCUhMQeAh+lGfgOQUBO6nHw0IyAUUBO6jHx0IyCUUBO6mHy0IyEUUBO6iHz0IyGUUBG7TjyYE5EIKAj/Tjy4E5FIKAj/SjzYE5GIKAjfpRx8CcjkFge/0oxEBWYGCwFf60YmArEFB4Av9aEVAVqEgcE0/ehGQdSgI6Ec7ArISBQH96EZA1qIgdKcf7QjIahSE3vSjHwFZj4LQmX40JCArUhD60o+OBGRNCkJX+tGSgKxKQehJP3oSkHUpCB3pR1MCsjIFoR/96EpA1qYgdKMfbQnI6hSEXvSjLwFZn4LQiX40JiAbUBD60I/OBGQLCkIX+tGagGxCQehBP3oTkG0oCB3oR3MCshEFoT796E5AtqIgVKcf7QnIZhSE2vQDAdmOglCZfiAgW1IQ6tIPBGRbCkJV+sEnArIpBaEm/eCagGxLQahIP/hMQDamINSjH3whIFtTEKrRDxYCsjkFoRb94CsB2Z6CUIl+8I2A7EBBqEM/+E5A9qAgVKEf3CAgu1AQatAPbhKQfSgIFegHPxCQnSgI89MPfiQge1EQZqcf/ERAdqMgzE0/+JmA7EdBmJl+cIuA7EhBmJd+cJuA7ElBmJV+cAcB2ZWCMCf94C4Csi8FYUb6wZ0EZGcKwnz0g7sJyN4UhNnoB/cQkN0pCHPRD+4jIPtTEGaiH9xLQA6gIMxDP7ifgBxBQZiFfvAAATmEgjAH/eAhAnIMBWEG+sGDBOQgCsL49IOHCchRFITR6QePEJDDKAhj0w8eIyDHURBGph88SkAOpCCMSz94nIAcSUEYlX5wAgE5lIIwJv3gFAJyLAVhRPrBSQTkYArCePSD0wjI0RSE0egHJxKQwykIY9EPTiUgx1MQRqIfnExABqAgjEM/OJ2AjEBBGIV+cAYBGYKCMAb94BwCMgYFYQT6wVkEZBAKwvH0g/MIyCgUhKPpB2cSkGEoCMfSD84lIONQEI6kH5xNQAaiIBxHPzifgIxEQTiKfhAQkKEoCMfQDxICMhYF4Qj6QURABqMg7E8/yAjIaBSEvekHIQEZjoKwL/0gJSDjURD2pB/EBGRACsJ+9IOcgIxIQdiLfnABARmSgrAP/eASAjImBWEP+sFFBGRQCsL29IPLCMioFISt6QcXEpBhKQjb0g8uJSDjUhC2pB9cTEAGpiBsRz+4nICMTEHYin6wAgEZmoKwDf1gDQIyNgVhC/rBKgRkcArC+vSDdQjI6BSEtekHKxGQ4SkI69IP1iIg41MQ1qQfrEZAJqAgrEc/WI+AzEBBWIt+sCIBmYKCsA79YE0CMgcFYQ36waoEZBIKwuX0g3UJyCwUhEvpBysTkGkoCJfRD9YmIPNQEC6hH6xOQCaiIOT0g/UJyEwUhJR+sAEBmYqCkNEPtiAgc1EQEvrBJgRkMgrC+fSDbQjIbBSEc+kHGxGQ6SgI59EPtiIg81EQzqEfbEZAJqQgnE4/2I6AzEhBOJV+sCEBmZKCcBr9YEsCMicF4RT6waYEZFIKwuP0g20JyKwUhMfoBxsTkGkpCA/TD7YmIPNSEB6iH2xOQCamINxPP9iegMxMQbiPfrADAZmagnA3/WAPAjI3BeEu+sEuBGRyCsJt+sE+BGR2CsLP9IOdCMj0FIQf6Qd7EZD5KQg36Qe7EZACFITv9IP9CEgFCsJX+sGOBKQEBeEL/WBPAlKDgnBNP9iVgBShIOgHexOQKhQE/WBnAlKGgnSnH+xNQOpQkN70g90JSCEK0pl+sD8BqURB+tIPDiAgpShIV/rBEQSkFgXpST84hIAUoyAd6QfHEJBqFKQf/eAgAlKOgnSjHxxFQOpRkF70g8MISEEK0ol+cBwBqUhB+tAPDiQgJSlIF/rBkQSkJgXpQT84lIAUpSAd6AfHEpCqFKQ+/eBgAlKWglSnHxxNQOpSkNr0g8MJSGEKUpl+cDwBqUxB6tIPBiAgpSlIVfrBCASkNgWpST8YgoAUpyAV6QdjEJDqFKQe/WAQAlKeglSjH4xCQOpTkFr0g2EISAMKUol+MA4B6UBB6tAPBiIgLShIFfrBSASkBwWpQT8YioA0oSAV6AdjEZAuFGR++sFgBKQNBZmdfjAaAelDQeamHwxHQBpRkJnpB+MRkE4UZF76wYAEpBUFmZV+MCIB6UVB5qQfDElAmlGQGekHYxKQbhRkPvrBoASkHQWZjX4wKgHpR0Hmoh8MS0AaUpCZ6AfjEpCOFGQe+sHABKQlBZmFfjAyAelJQeagHwxNQJpSkBnoB2MTkK4UZHz6weAEpC0FGZ1+MDoB6UtBxqYfDE9AGlOQkekH4xOQzhRkXPrBBASkNQUZlX4wAwHpTUHGpB9MQUCaU5AR6QdzEJDuFGQ8+sEkBKQ9BRmNfjALAUFBxqIfTENAUJCh6AfzEBAUZCT6wUQEhE8UZBT6wUwEhGsKMgb9YCoCwmcKMgL9YC4CwhcKcjz9YDICwkJBjqYfzEZA+EpBjqUfTEdA+EZBjqQfzEdA+E5BjqMfTEhAuEFBjqIfzEhAuElBjqEfTElA+IGCHEE/mJOA8CMF2Z9+MCkB4ScKsjf9YFYCws8UZF/6wbQEhFsUZE/6wbwEhNsUZD/6wcQEhDsoyF70g5kJCHdRkH3oB1MTEO6kIHvQD+YmINxNQbanH0xOQLiHgmxNP5idgHAfBdmWfjA9AeFeCrIl/WB+AsL9FGQ7+kEBAsIDFGQr+kEFAsJDFGQb+kEJAsKDFGQL+kENAsLDFGR9+kERAsIjFGRt+kEVAsJjFGRd+kEZAsKjFGRN+kEdAsLjFGQ9+kEhAsIJFGQt+kElAsIpFGQd+kEpAsJJFGQN+kEtAsJpFORy+kExAsKJFORS+kE1AsKpFOQy+kE5AsLJFOQS+kE9AsLpFCSnHxQkIJxBQVL6QUUCwjkUJKMflCQgnEVBEvpBTQLCeRTkfPpBUQLCmRTkXPpBVQLCuRTkPPpBWQLC2RTkHPpBXQLC+RTkdPpBYQJCQEFOpR9UJiAkFOQ0+kFpAkJEQU6hH9QmIGQU5HH6QXECQkhBHqMfVCcgpBTkYfpBeQJCTEEeoh/UJyDkFOR++kEDAsIFFOQ++kEHAsIlFORu+kELAsJFFOQu+kEPAsJlFOQ2/aAJAeFCCvIz/aALAeFSCvIj/aANAeFiCnKTftCHgHA5BflOP2hEQFiBgnylH3QiIKxBQb7QD1oREFahINf0g14EhHUoiH7QjoCwEgXRD7oRENbSvSD6QTsCwmp6F0Q/6EdAWE/ngugHDQkIK+pbEP2gIwFhTV0Loh+0JCCsqmdB9IOeBIR1dSyIftCUgLCyfgXRD7oSENbWrSD6QVsCwup6FUQ/6EtAWF+ngugHjQkIG+hTEP2gMwFhC10Koh+0JiBsokdB9IPeBIRtdCiIftCcgLCR+gXRD7oTELZSvSD6QXsCwmZqF0Q/QEDYTuWC6AcICFuqWxD9AAFhW1ULoh/wiYCwqZoF0Q+4JiBsq2JB9AM+ExA2Vq8g+gFfCAhbq1YQ/YCFgLC5WgXRD/hKQNhepYLoB3wjIOygTkH0A74TEPZQpSD6ATcICLuoURD9gJsEhH1UKIh+wA8EhJ3MXxD9gB8JCHuZvSD6AT8REHYzd0H0A34mIOxn5oLoB9wiIOxo3oLoB9wmIOxp1oLoB9xBQNjVnAXRD7iLgLCvGQuiH3AnAWFn8xVEP+BuAsLeZiuIfsA9BITdzVUQ/YD7CAj7m6kg+gH3EhAOME9B9APuJyAcYZaC6Ac8QEA4xBwF0Q94iIBwjBkKoh/wIAHhIOMXRD/gYQLCUUYviH7AIwSEw4xdEP2AxwgIxxm5IPoBjxIQDjRuQfQDHicgHGnUgugHnEBAONSYBdEPOIWAcKwRC/J0+XMk+sGABISDjViQ8egHIxIQjqYgj9MPhiQgHE5BHqMfjElAOJ6CPEw/GJSAMAAFeYh+MCoBYQQKcj/9YFgCwhAU5D76wbgEhDEoyN30g4EJCINQkLvoByMTEEahILfpB0MTEIahID/TD8YmIIxDQX6kHwxOQBiIgtykH4xOQBiJgnynHwxPQBiKgnylH4xPQBiLgnyhH0xAQBiMglzTD2YgIIxGQfSDSQgIw1EQ/WAOAsJ4uhdEP5iEgDCg3gXRD2YhIIyoc0H0g2kICEPqWxD9YB4Cwpi6FkQ/mIiAMKieBdEPZiIgjKpjQfSDqQgIw+pXEP1gLgLCuLoVRD+YjIAwsF4F0Q9mIyCMrFNB9IPpCAhD61MQ/WA+AsLYuhREP5iQgDC4HgXRD2YkIIyuQ0H0gykJCMOrXxD9YE4CwviqF0Q/mJSAMIHaBdEPZiUgzKByQfSDaQkIU6hbEP1gXgLCHKoWRD+YmIAwiZoF0Q9mJiDMomJB9IOpCQjTqFcQ/WBuAsI8qhVEP5icgDCRWgXRD2YnIMykUkH0g+kJCFOpUxD9YH4CwlyqFEQ/KEBAmEyNgugHFQgIs6lQEP2gBAFhOvMXRD+oQUCYz+wF0Q+KEBAmNHdB9IMqBIQZzVwQ/aAMAWFK8xZEP6hDQJjTrAXRDwoRECY1Z0H0g0oEhFnNWBD9oBQBYVrzFUQ/qEVAmNdsBdEPihEQJjZXQfSDagSEmc1UEP2gHAFhavMURD+oR0CY2ywF0Q8KEhAmN0dB9IOKBITZzVAQ/aAkAWF64xdEP6hJQJjf6AXRD4oSEAoYuyD6QVUCQgUjF0Q/KEtAKGHcgugHdQkINYxaEP2gMAGhiDELoh9UJiBUMWJB9IPSBIQyxiuIflCbgFDHaAXRD4oTEAoZqyD6QXUCQiUjFUQ/KE9AKGWcgugH9QkItYxSEP2gAQGhmDEKoh90ICBUM0JB9IMWBIRyji+IftCDgFDP0QXRD5oQEAo6tiD6QRcCQkVHFkQ/aENAKOm4gugHfQgINR1VEP2gEQGhqGMKoh90IiBUdURB9INWBISy9i+IftCLgFDX3gXRD5oREArbtyD6QTcCQmV7FkQ/aEdAKG2/gugH/QgIte1VEP2gIQGhuH0Koh90JCBUt0dB9IOWBITyti+IftCTgFDf1gXRD5oSEBrYtiD6QVcCQgdbFkQ/aEtAaGG7gugHfQkIPWxVEP2gMQGhiW0Koh90JiB0sUVB9IPWBIQ21i+IftCbgNDH2gXRD5oTEBpZtyD6QXcCQidrFkQ/aE9AaGW9gugHCAi9PFk+/y/197I9aExAaObvpQCX+X3ZGnQmIHTzbmnAJd4t24LWBIR23i8VyD1btgS9CQj9/PV0CUHm6YtlO9CcgNDRJRMhpj9gISC09Gypwfn+XLYACAhN/bIE4Txmz+E7AaGrN+cvKnxi9gNuEBD6enleQt7+szwP+ExA6OzX0xem//3X8hxgISD09uLVEoiHvfqwPB74RkBo76/H5tPf+fIBdxEQ+PjxzbP7Vob8/szEOdxDQOCLD/+8/uXtko1rT949+8cPV/AAAYGf/PeHtwWcwjsFgIiAABAREAAiAgJAREAAiAgIABEBASAiIABEBASAiIAAEBEQACICAkBEQACICAgAEQEBICIgAEQEBICIgAAQERAAIgICQERAAIgICAARAQEgIiAARAQEgIiAABAREAAiAgJAREAAiAgIABEBASAiIABEBASAiIAAEBEQACICAkBEQACICAgAEQEBICIgAEQEBICIgAAQERAAIgICQERAAIgICAARAQEgIiAARAQEgIiAABAREAAiAgJAREAAiAgIABEBASAiIABEBASAiIAAEBEQACICAkBEQACICAgAEQEBICIgAEQEBICIgAAQERAAIgICQERAAIgICAARAQEgIiAARAQEgIiAABAREAAiAgJAREAAiAgIABEBASAiIABEBASAiIAAEBEQACICAkBEQACICAgAEQEBICIgAEQEBICIgAAQERAAIgICQERAAIgICAARAQEgIiAARAQEgIiAABAREAAiAgJAREAAiAgIABEBASAiIABEBASAiIAAEBEQACICAkBEQACICAgAEQEBICIgAEQEBICIgAAQERAAIgICQERAAIgICAARAQEgIiAARAQEgIiAABAREAAiAgJAREAAiAgIABEBASAiIABEBASAiIAAEBEQACICAkBEQACICAgAEQEBICIgAEQEBICIgAAQERAAIgICQERAAIgICAARAQEgIiAARAQEgIiAABAREAAiAgJAREAAiAgIABEBASAiIABEBASAiIAAEBEQACICAkBEQACICAgAEQEBICIgAEQEBICIgAAQERAAIgICQERAAIgICAARAQEgIiAARAQEgIiAABAREAAiAgJAREAAiAgIABEBASAiIABEBASAiIAAEBEQACICAkBEQACICAgAEQEBICIgAEQEBICIgAAQERAAIgICQERAAIgICAARAQEgIiAARAQEgIiAABAREAAiAgJAREAAiAgIABEBASAiIABEBASAiIAAEBEQACICAkBEQACICAgAEQEBICIgAEQEBICIgAAQERAAIgICQERAAIgICAARAQEgIiAARAQEgIiAABAREAAiAgJAREAAiAgIABEBASAiIABEBASAiIAAEBEQACICAkBEQACICAgAEQEBICIgAEQEBICIgAAQERAAIgICQERAAIgICAARAQEgIiAARAQEgIiAABAREAAiAgJAREAAiAgIABEBASAiIABEBASAiIAAEBEQACICAkBEQACICAgAEQEBICIgAEQEBICIgAAQERAAIgICQERAAIgICAARAQEgIiAARAQEgIiAABAREAAiAgJAREAAiAgIABEBASAiIABEBASAiIAAEBEQACICAkBEQACICAgAEQEBICIgAEQEBICIgAAQERAAIgICQERAAIgICAARAQEgIiAARAQEgIiAABAREAAiAgJAREAAiAgIABEBASAiIABEBASAiIAAEBEQACICAkBEQACICAgAEQEBICIgAEQEBICIgAAQERAAIgICQERAAIgICAARAQEgIiAARAQEgIiAABAREAAiAgJAREAAiAgIABEBASAiIABEBASAiIAAEBEQACICAkBEQACICAgAEQEBICIgAEQEBICIgAAQERAAIgICQERAAIgICAARAQEgIiAARAQEgIiAABAREAAiAgJAREAAiAgIABEBASAiIABEBASAiIAAEBEQACICAkBEQACICAgAEQEBICIgAEQEBICIgAAQERAAIgICQERAAIgICAARAQEgIiAARAQEgIiAABAREAAiAgJAREAAiAgIABEBASAiIABEBASAiIAAEBEQACICAkBEQACICAgAEQEBICIgAEQEBICIgAAQERAAIgICQERAAIgICAARAQEgIiAARAQEgIiAABAREAAiAgJAREAAiAgIABEBASAiIABEBASAiIAAEBEQACICAkBEQACICAgAEQEBICIgAEQEBICIgAAQERAAIgICQERAAIgICAARAQEgIiAARAQEgIiAABAREAAiAgJAREAAiAgIABEBASAiIABEBASAiIAAEBEQACICAkBEQACICAgAEQEBICIgAEQEBICIgAAQERAAIgICQERAAIgICAARAQEgIiAARAQEgIiAABAREAAiAgJAREAAiAgIABEBASAiIABEBASAiIAAEBEQACICAkBEQACICAgAEQEBICIgAEQEBICIgAAQERAAIgICQERAAIgICAARAQEgIiAARAQEgIiAABAREAAiAgJAREAAiAgIABEBASAiIABEBASAiIAAEBEQACICAkBEQACICAgAEQEBICIgAEQEBICIgAAQERAAIgICQERAAIgICAARAQEgIiAARAQEgIiAABAREAAiAgJAREAAiAgIABEBASAiIABEBASAiIAAEBEQACICAkBEQACICAgAgY8f/w+71y8dxM3IpAAAAABJRU5ErkJggg==;" vertex="1" parent="q_SVAzrkm7CIC3D86Wrv-1">
          <mxGeometry x="212.69870609981515" y="237" width="10.401744454713493" height="12.130314232902032" as="geometry" />
        </mxCell>
        <mxCell id="q_SVAzrkm7CIC3D86Wrv-22" value="Sign Up" style="rounded=1;whiteSpace=wrap;html=1;" vertex="1" parent="q_SVAzrkm7CIC3D86Wrv-1">
          <mxGeometry x="131.8253234750462" y="264.75000000000006" width="72.15341959334565" height="22.5" as="geometry" />
        </mxCell>
        <mxCell id="q_SVAzrkm7CIC3D86Wrv-23" value="" style="whiteSpace=wrap;html=1;aspect=fixed;" vertex="1" parent="q_SVAzrkm7CIC3D86Wrv-1">
          <mxGeometry x="240.05545286506467" y="93.75" width="103.10767097966729" height="103.10767097966729" as="geometry" />
        </mxCell>
        <mxCell id="q_SVAzrkm7CIC3D86Wrv-24" value="" style="endArrow=none;html=1;rounded=0;entryX=0;entryY=0;entryDx=0;entryDy=0;exitX=0.977;exitY=0.989;exitDx=0;exitDy=0;exitPerimeter=0;" edge="1" parent="q_SVAzrkm7CIC3D86Wrv-1" source="q_SVAzrkm7CIC3D86Wrv-23" target="q_SVAzrkm7CIC3D86Wrv-23">
          <mxGeometry width="50" height="50" relative="1" as="geometry">
            <mxPoint x="151.14602587800368" y="210" as="sourcePoint" />
            <mxPoint x="185.34195933456562" y="172.5" as="targetPoint" />
          </mxGeometry>
        </mxCell>
        <mxCell id="q_SVAzrkm7CIC3D86Wrv-25" value="" style="endArrow=none;html=1;rounded=0;entryX=1;entryY=0;entryDx=0;entryDy=0;exitX=0.028;exitY=0.989;exitDx=0;exitDy=0;exitPerimeter=0;" edge="1" parent="q_SVAzrkm7CIC3D86Wrv-1" source="q_SVAzrkm7CIC3D86Wrv-23" target="q_SVAzrkm7CIC3D86Wrv-23">
          <mxGeometry width="50" height="50" relative="1" as="geometry">
            <mxPoint x="151.14602587800368" y="210" as="sourcePoint" />
            <mxPoint x="185.34195933456562" y="172.5" as="targetPoint" />
          </mxGeometry>
        </mxCell>
        <mxCell id="q_SVAzrkm7CIC3D86Wrv-26" value="" style="endArrow=classic;html=1;rounded=0;exitX=1;exitY=0.5;exitDx=0;exitDy=0;" edge="1" parent="1" source="q_SVAzrkm7CIC3D86Wrv-22">
          <mxGeometry width="50" height="50" relative="1" as="geometry">
            <mxPoint x="-460" y="330" as="sourcePoint" />
            <mxPoint x="-250" y="250" as="targetPoint" />
            <Array as="points">
              <mxPoint x="-330" y="416" />
              <mxPoint x="-330" y="250" />
            </Array>
          </mxGeometry>
        </mxCell>
        <mxCell id="q_SVAzrkm7CIC3D86Wrv-27" value="" style="rounded=0;whiteSpace=wrap;html=1;" vertex="1" parent="1">
          <mxGeometry x="-250" y="220" width="200" height="90" as="geometry" />
        </mxCell>
        <mxCell id="q_SVAzrkm7CIC3D86Wrv-28" value="Ok" style="rounded=1;whiteSpace=wrap;html=1;" vertex="1" parent="1">
          <mxGeometry x="-186.07467652495382" y="278.75" width="72.15341959334565" height="22.5" as="geometry" />
        </mxCell>
        <mxCell id="q_SVAzrkm7CIC3D86Wrv-29" value="Sign up successfull" style="text;html=1;strokeColor=none;fillColor=none;align=center;verticalAlign=middle;whiteSpace=wrap;rounded=0;" vertex="1" parent="1">
          <mxGeometry x="-219" y="238" width="140" height="30" as="geometry" />
        </mxCell>
      </root>
    </mxGraphModel>
  </diagram>
</mxfile>
